<svg width="34" height="34" viewBox="0 0 34 34" fill="none" xmlns="http://www.w3.org/2000/svg">
<g clip-path="url(#clip0)">
<path fill-rule="evenodd" clip-rule="evenodd" d="M24.0711 9.92893C27.9763 13.8342 27.9763 20.1658 24.0711 24.0711C20.1658 27.9763 13.8342 27.9763 9.92893 24.0711C6.02369 20.1658 6.02369 13.8342 9.92893 9.92893C13.8342 6.02369 20.1658 6.02369 24.0711 9.92893ZM17 12.2574C17.2761 12.2574 17.5 12.4812 17.5 12.7574L17.5 16.5H21.2426C21.5188 16.5 21.7426 16.7239 21.7426 17C21.7426 17.2761 21.5188 17.5 21.2426 17.5H17.5L17.5 21.2426C17.5 21.5188 17.2761 21.7426 17 21.7426C16.7239 21.7426 16.5 21.5188 16.5 21.2426L16.5 17.5H12.7574C12.4812 17.5 12.2574 17.2761 12.2574 17C12.2574 16.7239 12.4812 16.5 12.7574 16.5H16.5L16.5 12.7574C16.5 12.4812 16.7239 12.2574 17 12.2574Z" fill="black"/>
</g>
<defs>
<clipPath id="clip0">
<rect x="0.0294342" y="17" width="24" height="24" transform="rotate(-45 0.0294342 17)" fill="white"/>
</clipPath>
</defs>
</svg>
