<svg width="24" height="24" viewBox="0 0 24 24" fill="none" xmlns="http://www.w3.org/2000/svg">
<path d="M12 22C17.5228 22 22 17.5228 22 12C22 6.47715 17.5228 2 12 2C6.47715 2 2 6.47715 2 12C2 17.5228 6.47715 22 12 22Z" stroke="black" stroke-linecap="round" stroke-linejoin="round"/>
<path d="M17 19.7231V18.0564C17 17.1724 16.7366 16.3245 16.2678 15.6994C15.7989 15.0743 15.163 14.7231 14.5 14.7231H9.5C8.83696 14.7231 8.20107 15.0743 7.73223 15.6994C7.26339 16.3245 7 17.1724 7 18.0564V19.7231" stroke="black" stroke-linecap="round" stroke-linejoin="round"/>
<path d="M12.2093 11.9113C13.6478 11.9113 14.8139 10.7452 14.8139 9.3067C14.8139 7.8682 13.6478 6.70206 12.2093 6.70206C10.7708 6.70206 9.60464 7.8682 9.60464 9.3067C9.60464 10.7452 10.7708 11.9113 12.2093 11.9113Z" stroke="black" stroke-linecap="round" stroke-linejoin="round"/>
</svg>
